<?xml version="1.0" standalone="no"?>
<!DOCTYPE svg PUBLIC "-//W3C//DTD SVG 20010904//EN"
 "http://www.w3.org/TR/2001/REC-SVG-20010904/DTD/svg10.dtd">
<svg version="1.0" xmlns="http://www.w3.org/2000/svg"
 width="596.000000pt" height="596.000000pt" viewBox="0 0 596.000000 596.000000"
 preserveAspectRatio="xMidYMid meet">

<g transform="translate(0.000000,596.000000) scale(0.100000,-0.100000)"
fill="#000000" stroke="none">
<path d="M2165 4546 c-95 -19 -206 -72 -290 -139 -116 -93 -187 -202 -231
-355 -24 -84 -26 -105 -21 -205 5 -128 32 -218 92 -317 47 -77 147 -178 224
-225 34 -21 61 -41 61 -45 0 -4 -19 -13 -42 -20 -57 -17 -170 -74 -238 -120
-112 -77 -207 -183 -265 -299 -62 -124 -66 -158 -72 -618 -3 -226 -3 -427 1
-447 4 -22 15 -41 29 -48 16 -9 118 -13 365 -16 l342 -4 0 -120 c0 -113 1
-120 25 -144 l24 -24 865 2 c815 3 866 4 883 21 15 15 19 39 21 141 l4 123
296 6 c280 6 297 8 317 27 20 20 20 31 19 438 -1 466 -5 506 -68 638 -61 129
-163 244 -294 333 -62 41 -182 103 -222 114 -32 8 -24 20 43 57 96 54 207 172
256 272 55 111 72 183 72 304 1 151 -35 267 -120 392 -79 117 -228 224 -371
266 -154 46 -332 27 -490 -50 -80 -39 -108 -60 -181 -134 l-86 -87 -120 -5
-120 -6 -42 55 c-45 56 -157 146 -226 181 -121 60 -304 85 -440 58z m322 -165
c85 -33 160 -83 211 -142 l31 -35 -57 -35 c-31 -19 -86 -64 -122 -100 -168
-170 -234 -397 -184 -635 8 -42 13 -78 10 -81 -12 -13 -100 -14 -161 -4 -194
34 -368 185 -426 370 -28 90 -28 231 1 321 58 186 217 328 414 370 76 17 197
4 283 -29z m1353 11 c182 -63 297 -178 355 -357 24 -70 26 -91 22 -175 -6
-115 -32 -196 -91 -283 -85 -124 -227 -210 -385 -232 -43 -6 -43 -6 -37 22 38
161 38 293 0 422 -50 173 -196 342 -358 417 -31 14 -56 29 -56 34 0 35 200
150 295 169 69 14 189 6 255 -17z m-600 -297 c134 -59 233 -149 293 -263 43
-83 57 -147 57 -260 -1 -335 -320 -593 -651 -528 -351 68 -547 451 -396 771
63 131 189 241 336 293 57 19 81 22 181 19 100 -3 123 -7 180 -32z m-769 -968
c43 -11 71 -27 122 -70 36 -31 81 -63 98 -73 l32 -16 -89 -37 c-211 -89 -367
-230 -455 -411 -57 -119 -61 -145 -66 -422 l-5 -258 -289 0 -289 0 0 378 c0
409 3 439 56 545 66 130 187 239 349 312 62 29 152 52 260 69 49 7 216 -3 276
-17z m1391 -2 c225 -48 427 -203 518 -397 16 -35 34 -87 40 -117 6 -30 10
-210 10 -412 l0 -359 -239 0 -239 0 -4 243 c-4 230 -6 246 -31 322 -76 227
-269 429 -504 527 -29 12 -53 25 -53 30 0 4 15 15 33 24 43 22 104 70 147 115
19 21 44 40 55 43 31 8 191 -3 267 -19z m-627 -282 c238 -54 462 -242 537
-451 27 -75 39 -326 31 -634 l-6 -228 -762 0 c-649 0 -764 2 -774 14 -9 11
-11 113 -9 398 l3 383 27 74 c124 341 545 537 953 444z"/>
</g>
</svg>
